<?xml version="1.0" encoding="UTF-8" standalone="no"?>
<svg
   viewBox="0 0 384 512"
   version="1.1"
   id="svg4"
   sodipodi:docname="location-dot-solid_red.svg"
   inkscape:version="1.1 (c68e22c387, 2021-05-23)"
   inkscape:export-filename="G:\.shortcut-targets-by-id\15VAQWDaOcb3Iv0M_AFbIhGzd3pJIkv7c\materiali mappa\dati\webgis\v041\images\location-dot-solid_red.png"
   inkscape:export-xdpi="96"
   inkscape:export-ydpi="96"
   xmlns:inkscape="http://www.inkscape.org/namespaces/inkscape"
   xmlns:sodipodi="http://sodipodi.sourceforge.net/DTD/sodipodi-0.dtd"
   xmlns="http://www.w3.org/2000/svg"
   xmlns:svg="http://www.w3.org/2000/svg">
  <defs
     id="defs8" />
  <sodipodi:namedview
     id="namedview6"
     pagecolor="#ffffff"
     bordercolor="#666666"
     borderopacity="1.0"
     inkscape:pageshadow="2"
     inkscape:pageopacity="0.0"
     inkscape:pagecheckerboard="0"
     showgrid="false"
     inkscape:zoom="1.625"
     inkscape:cx="191.69231"
     inkscape:cy="256.30769"
     inkscape:window-width="1920"
     inkscape:window-height="1017"
     inkscape:window-x="-8"
     inkscape:window-y="-8"
     inkscape:window-maximized="1"
     inkscape:current-layer="svg4" />
  <!--! Font Awesome Pro 6.0.0 by @fontawesome - https://fontawesome.com License - https://fontawesome.com/license (Commercial License) Copyright 2022 Fonticons, Inc. -->
  <path
     d="M168.3 499.2C116.1 435 0 279.4 0 192C0 85.96 85.96 0 192 0C298 0 384 85.96 384 192C384 279.4 267 435 215.7 499.2C203.4 514.5 180.6 514.5 168.3 499.2H168.3zM192 256C227.3 256 256 227.3 256 192C256 156.7 227.3 128 192 128C156.7 128 128 156.7 128 192C128 227.3 156.7 256 192 256z"
     id="path2" />
  <path
     style="fill:#ff0000;stroke:#ff6600;stroke-width:0.581466"
     d="m 184.30769,509.27202 c -4.0324,-1.12382 -8.90865,-3.75408 -11.81032,-6.37051 -3.92851,-3.54232 -20.87695,-24.87319 -39.95483,-50.28613 C 53.50014,347.32597 7.0138855,259.34143 0.95662523,203.56271 -1.4004005,181.85788 2.7981666,151.86044 11.661898,127.07692 15.605766,116.04964 24.969244,97.348191 31.535125,87.384615 59.983621,44.214662 103.89445,14.303376 153.51839,4.2917535 167.40901,1.4893237 176.86596,0.57622363 192,0.57622363 c 15.13404,0 24.59099,0.91310007 38.48161,3.71552987 75.51668,15.2354795 135.1324,75.7185845 149.76589,151.9449465 2.3685,12.33757 3.10084,20.38485 3.11465,34.22484 0.0141,14.09698 -0.68909,19.95807 -4.04778,33.73992 -13.48672,55.3406 -57.86435,134.34501 -128.66654,229.06189 -17.06299,22.82632 -35.53814,46.29949 -38.81346,49.31354 -3.21347,2.95712 -8.00239,5.54943 -12.44975,6.7392 -3.788,1.01337 -11.36212,0.99123 -15.07693,-0.0441 z m 24.30769,-255.09704 c 10.76794,-2.91724 23.43857,-10.53971 30.512,-18.3556 7.22912,-7.98792 12.89124,-18.54884 15.45133,-28.81967 1.94646,-7.80905 1.9512,-22.17224 0.01,-29.95785 -2.64776,-10.61876 -8.16314,-20.9184 -15.47043,-28.89009 -7.31342,-7.97843 -19.76648,-15.42499 -30.81043,-18.42376 -4.55624,-1.23716 -6.65918,-1.42032 -16.30769,-1.42032 -12.90198,0 -17.49794,0.93766 -27.29324,5.5683 -17.50838,8.27693 -30.01416,23.28744 -35.00091,42.01113 -1.38051,5.18337 -1.59152,7.24066 -1.62105,15.80519 -0.028,8.11832 0.19914,10.77673 1.29431,15.14911 6.20363,24.76749 24.60697,42.48995 50.1015,48.24784 5.99628,1.35424 22.69565,0.8302 29.13477,-0.91428 z"
     id="path307" />
</svg>
